<svg width="127" height="43" viewBox="0 0 127 43" fill="none" xmlns="http://www.w3.org/2000/svg">
<path d="M52.0174 17.7784C51.9606 17.1534 51.7077 16.6676 51.2589 16.321C50.8157 15.9688 50.1822 15.7926 49.3583 15.7926C48.8129 15.7926 48.3583 15.8636 47.9947 16.0057C47.631 16.1477 47.3583 16.3438 47.1765 16.5938C46.9947 16.8381 46.9009 17.1193 46.8952 17.4375C46.8839 17.6989 46.935 17.929 47.0487 18.1278C47.168 18.3267 47.3384 18.5028 47.56 18.6562C47.7873 18.804 48.06 18.9347 48.3782 19.0483C48.6964 19.1619 49.0543 19.2614 49.4521 19.3466L50.9521 19.6875C51.8157 19.875 52.5771 20.125 53.2362 20.4375C53.9009 20.75 54.4577 21.1222 54.9066 21.554C55.3612 21.9858 55.7049 22.483 55.9379 23.0455C56.1708 23.608 56.2901 24.2386 56.2958 24.9375C56.2901 26.0398 56.0117 26.9858 55.4606 27.7756C54.9094 28.5653 54.1168 29.1705 53.0827 29.5909C52.0543 30.0114 50.8129 30.2216 49.3583 30.2216C47.8981 30.2216 46.6254 30.0028 45.5401 29.5653C44.4549 29.1278 43.6112 28.4631 43.0089 27.571C42.4066 26.679 42.0969 25.5511 42.0799 24.1875H46.1197C46.1538 24.75 46.3043 25.2188 46.5714 25.5938C46.8384 25.9688 47.2049 26.2528 47.6708 26.446C48.1424 26.6392 48.6879 26.7358 49.3072 26.7358C49.8754 26.7358 50.3583 26.6591 50.756 26.5057C51.1594 26.3523 51.4691 26.1392 51.685 25.8665C51.9009 25.5937 52.0117 25.2812 52.0174 24.929C52.0117 24.5994 51.9094 24.3182 51.7106 24.0852C51.5117 23.8466 51.2049 23.642 50.7901 23.4716C50.381 23.2955 49.8583 23.1335 49.2219 22.9858L47.3981 22.5597C45.8867 22.2131 44.6964 21.6534 43.8271 20.8807C42.9577 20.1023 42.5259 19.0511 42.5316 17.7273C42.5259 16.6477 42.8157 15.7017 43.4009 14.8892C43.9862 14.0767 44.7958 13.4432 45.8299 12.9886C46.864 12.5341 48.043 12.3068 49.3668 12.3068C50.7191 12.3068 51.8924 12.5369 52.8867 12.9972C53.8867 13.4517 54.6623 14.0909 55.2134 14.9148C55.7646 15.7386 56.0458 16.6932 56.0572 17.7784H52.0174ZM62.5941 22.5341V30H58.4265V12.5455H62.4577V19.3125H62.6026C62.8981 18.5057 63.381 17.875 64.0515 17.4205C64.7276 16.9659 65.5543 16.7386 66.5316 16.7386C67.4521 16.7386 68.2532 16.9432 68.935 17.3523C69.6168 17.7557 70.1452 18.3267 70.5202 19.0653C70.9009 19.804 71.0884 20.6676 71.0827 21.6562V30H66.9151V22.4744C66.9208 21.7472 66.739 21.179 66.3697 20.7699C66.0004 20.3608 65.4805 20.1562 64.81 20.1562C64.3725 20.1562 63.9862 20.2528 63.6509 20.446C63.3214 20.6335 63.0629 20.9034 62.8754 21.2557C62.6935 21.608 62.5998 22.0341 62.5941 22.5341ZM79.8036 30.2472C78.4343 30.2472 77.2525 29.9773 76.2582 29.4375C75.2695 28.892 74.5082 28.1165 73.9741 27.1108C73.4457 26.0994 73.1815 24.8977 73.1815 23.5057C73.1815 22.1534 73.4485 20.9716 73.9826 19.9602C74.5167 18.9432 75.2695 18.1534 76.2411 17.5909C77.2127 17.0227 78.3576 16.7386 79.6758 16.7386C80.6076 16.7386 81.4599 16.8835 82.2326 17.1733C83.0053 17.4631 83.6729 17.892 84.2354 18.4602C84.7979 19.0284 85.2354 19.7301 85.5479 20.5653C85.8604 21.3949 86.0167 22.3466 86.0167 23.4205V24.4602H74.6388V22.0398H82.1388C82.1332 21.5966 82.0281 21.2017 81.8235 20.8551C81.619 20.5085 81.3377 20.2386 80.9798 20.0455C80.6275 19.8466 80.2212 19.7472 79.761 19.7472C79.2951 19.7472 78.8775 19.8523 78.5082 20.0625C78.1388 20.267 77.8462 20.5483 77.6303 20.9062C77.4144 21.2585 77.3008 21.6591 77.2894 22.108V24.571C77.2894 25.1051 77.3945 25.5739 77.6048 25.9773C77.815 26.375 78.1133 26.6847 78.4996 26.9062C78.886 27.1278 79.3462 27.2386 79.8803 27.2386C80.2496 27.2386 80.5849 27.1875 80.886 27.0852C81.1871 26.983 81.4457 26.8324 81.6616 26.6335C81.8775 26.4347 82.0394 26.1903 82.1474 25.9006L85.9741 26.0114C85.815 26.8693 85.4656 27.6165 84.9258 28.2528C84.3917 28.8835 83.69 29.375 82.8207 29.7273C81.9513 30.0739 80.9457 30.2472 79.8036 30.2472ZM88.1452 34.9091V16.9091H92.2702V19.1506H92.3981C92.5685 18.7528 92.81 18.3693 93.1225 18C93.4407 17.6307 93.8441 17.3295 94.3327 17.0966C94.8271 16.858 95.418 16.7386 96.1055 16.7386C97.0146 16.7386 97.864 16.9773 98.6538 17.4545C99.4492 17.9318 100.091 18.6676 100.58 19.6619C101.069 20.6562 101.313 21.9233 101.313 23.4631C101.313 24.946 101.077 26.1875 100.605 27.1875C100.14 28.1875 99.5089 28.9375 98.7134 29.4375C97.9237 29.9375 97.0458 30.1875 96.0799 30.1875C95.4208 30.1875 94.8498 30.0795 94.3668 29.8636C93.8839 29.6477 93.4776 29.3636 93.1481 29.0114C92.8242 28.6591 92.5742 28.2812 92.3981 27.8778H92.3129V34.9091H88.1452ZM92.2276 23.4545C92.2276 24.1591 92.3214 24.7727 92.5089 25.2955C92.7021 25.8182 92.9776 26.2244 93.3356 26.5142C93.6992 26.7983 94.1339 26.9403 94.6396 26.9403C95.1509 26.9403 95.5856 26.7983 95.9435 26.5142C96.3015 26.2244 96.5714 25.8182 96.7532 25.2955C96.9407 24.7727 97.0344 24.1591 97.0344 23.4545C97.0344 22.75 96.9407 22.1392 96.7532 21.6222C96.5714 21.1051 96.3015 20.7045 95.9435 20.4205C95.5913 20.1364 95.1566 19.9943 94.6396 19.9943C94.1282 19.9943 93.6935 20.1335 93.3356 20.4119C92.9776 20.6903 92.7021 21.0881 92.5089 21.6051C92.3214 22.1222 92.2276 22.7386 92.2276 23.4545ZM109.616 30.2472C108.247 30.2472 107.065 29.9773 106.071 29.4375C105.082 28.892 104.321 28.1165 103.787 27.1108C103.258 26.0994 102.994 24.8977 102.994 23.5057C102.994 22.1534 103.261 20.9716 103.795 19.9602C104.329 18.9432 105.082 18.1534 106.054 17.5909C107.025 17.0227 108.17 16.7386 109.488 16.7386C110.42 16.7386 111.272 16.8835 112.045 17.1733C112.818 17.4631 113.485 17.892 114.048 18.4602C114.61 19.0284 115.048 19.7301 115.36 20.5653C115.673 21.3949 115.829 22.3466 115.829 23.4205V24.4602H104.451V22.0398H111.951C111.946 21.5966 111.841 21.2017 111.636 20.8551C111.431 20.5085 111.15 20.2386 110.792 20.0455C110.44 19.8466 110.034 19.7472 109.574 19.7472C109.108 19.7472 108.69 19.8523 108.321 20.0625C107.951 20.267 107.659 20.5483 107.443 20.9062C107.227 21.2585 107.113 21.6591 107.102 22.108V24.571C107.102 25.1051 107.207 25.5739 107.417 25.9773C107.627 26.375 107.926 26.6847 108.312 26.9062C108.699 27.1278 109.159 27.2386 109.693 27.2386C110.062 27.2386 110.397 27.1875 110.699 27.0852C111 26.983 111.258 26.8324 111.474 26.6335C111.69 26.4347 111.852 26.1903 111.96 25.9006L115.787 26.0114C115.627 26.8693 115.278 27.6165 114.738 28.2528C114.204 28.8835 113.502 29.375 112.633 29.7273C111.764 30.0739 110.758 30.2472 109.616 30.2472ZM117.958 30V16.9091H122.006V19.2955H122.142C122.381 18.4318 122.77 17.7898 123.31 17.3693C123.85 16.9432 124.478 16.7301 125.194 16.7301C125.387 16.7301 125.586 16.7443 125.79 16.7727C125.995 16.7955 126.185 16.8324 126.361 16.8835V20.5057C126.162 20.4375 125.901 20.3835 125.577 20.3438C125.259 20.304 124.975 20.2841 124.725 20.2841C124.23 20.2841 123.784 20.3949 123.387 20.6165C122.995 20.8324 122.685 21.1364 122.458 21.5284C122.236 21.9148 122.125 22.3693 122.125 22.892V30H117.958Z" fill="#EF36FF"/>
<rect y="4.97766" width="26.4105" height="38.1201" transform="rotate(-10.8636 0 4.97766)" fill="#EF36FF"/>
</svg>
